<svg fill="#ffffff" viewBox="0 0 256 260" xmlns="http://www.w3.org/2000/svg">
  <path d="M239.184 106.203a64.716 64.716 0 0 0-5.576-53.103C219.452 28.459 191 15.784 163.213 21.74A65.586 65.586 0 0 0 100.88 1.42C72.01 1.35 46.558 18.771 37.545 45.235a65.626 65.626 0 0 0-43.675 31.36C-22.19 101.183-7.137 132.22 13.952 153.32a64.72 64.72 0 0 0 5.576 53.103c14.183 24.589 42.644 37.261 70.43 31.308a65.56 65.56 0 0 0 49.34 22.059c28.877.07 54.339-17.349 63.351-43.826a65.625 65.625 0 0 0 43.676-31.358c16.213-25.592 11.498-59.044-6.142-78.403zm-97.56 136.338a48.397 48.397 0 0 1-31.105-11.255l1.535-.87 51.67-29.825a8.595 8.595 0 0 0 4.247-7.367v-72.85l21.845 12.636c.218.111.37.32.409.563v60.367c-.056 26.818-21.783 48.545-48.601 48.601zm-104.466-44.61a48.345 48.345 0 0 1-5.781-32.589l1.534.921 51.722 29.826a8.339 8.339 0 0 0 8.441 0l63.181-36.425v25.221a.87.87 0 0 1-.358.665l-52.335 30.184c-23.257 13.398-52.97 5.431-66.404-17.803zM23.549 85.38a48.499 48.499 0 0 1 25.58-21.333v61.39a8.288 8.288 0 0 0 4.195 7.316l62.874 36.272-21.845 12.636a.819.819 0 0 1-.773 0L41.353 151.53c-23.257-13.454-31.171-43.144-17.804-66.149zm179.466 41.695-63.08-36.63L161.78 77.81a.819.819 0 0 1 .773 0l52.237 30.184a48.6 48.6 0 0 1-7.316 87.635v-61.391a8.544 8.544 0 0 0-4.459-7.164zm21.742-32.69-1.535-.922-51.619-30.081a8.39 8.39 0 0 0-8.441 0L99.98 99.808V74.587a.716.716 0 0 1 .307-.665l52.236-30.133a48.652 48.652 0 0 1 72.236 50.391zM88.061 139.097l-21.845-12.585a8.217 8.217 0 0 1-4.246-7.367V59.375a48.652 48.652 0 0 1 79.798-37.261l-1.535.87-51.67 29.825a8.595 8.595 0 0 0-4.246 7.367l-.256 72.921zm11.868-25.58 28.138-16.217 28.188 16.218v32.434l-28.086 16.218-28.188-16.218-.052-32.434z"/>
</svg>
